<?xml version="1.0" encoding="utf-8"?>
<!-- Generator: Adobe Illustrator 25.0.0, SVG Export Plug-In . SVG Version: 6.00 Build 0)  -->
<svg version="1.1" id="Layer_1" xmlns="http://www.w3.org/2000/svg" xmlns:xlink="http://www.w3.org/1999/xlink" x="0px" y="0px"
	 viewBox="0 0 213.4 56.2" style="enable-background:new 0 0 213.4 56.2;" xml:space="preserve">
<style type="text/css">
	.st0{fill:#333333;}
</style>
<g>
	<path class="st0" d="M36.3,41.4h-3.6c-0.4,0-0.7,0.3-0.7,0.7s0.3,0.7,0.7,0.7h3.6c0.4,0,0.7-0.3,0.7-0.7S36.7,41.4,36.3,41.4z"/>
	<path class="st0" d="M30.4,43.7h-10c-0.4,0-0.7,0.3-0.7,0.7s0.3,0.7,0.7,0.7h10c0.4,0,0.7-0.3,0.7-0.7S30.8,43.7,30.4,43.7z"/>
	<path class="st0" d="M20.8,37.6c0-0.4-0.3-0.7-0.7-0.7h-4.6c-0.4,0-0.7,0.3-0.7,0.7s0.3,0.7,0.7,0.7h4.6
		C20.5,38.3,20.8,38,20.8,37.6z"/>
	<rect x="26.6" y="20.8" class="st0" width="9.9" height="1.4"/>
	<path class="st0" d="M21.2,29.8c0.4,0,0.7-0.3,0.7-0.7s-0.3-0.7-0.7-0.7H17c-0.4,0-0.7,0.3-0.7,0.7s0.3,0.7,0.7,0.7H21.2z"/>
	<polygon class="st0" points="27,31 26.4,30.8 25.8,32.1 27.5,32.8 29,30.6 27.9,29.8 	"/>
	<rect x="29.2" y="27.9" class="st0" width="7.3" height="1.4"/>
	<rect x="29.2" y="24.6" class="st0" width="7.3" height="1.4"/>
	<path class="st0" d="M13.7,22.6h-3.5c-0.4,0-0.7,0.3-0.7,0.7s0.3,0.7,0.7,0.7h3.5c0.4,0,0.7-0.3,0.7-0.7S14.1,22.6,13.7,22.6z"/>
	<rect x="26.6" y="27.9" class="st0" width="1.3" height="1.4"/>
	<rect x="29.2" y="31.2" class="st0" width="7.3" height="1.4"/>
	<rect x="26.6" y="24.6" class="st0" width="1.3" height="1.4"/>
	<path class="st0" d="M17.3,2.6h1.1v1.1c0,0.3,0.2,0.5,0.5,0.5s0.5-0.2,0.5-0.5V2.6h1.1c0.3,0,0.5-0.2,0.5-0.5s-0.2-0.5-0.5-0.5
		h-1.1V0.5c0-0.3-0.2-0.5-0.5-0.5s-0.5,0.2-0.5,0.5v1.1h-1.1c-0.3,0-0.5,0.2-0.5,0.5S17,2.6,17.3,2.6z"/>
	<path class="st0" d="M36.5,3.6h0.8v0.8c0,0.2,0.2,0.3,0.3,0.3S38,4.5,38,4.3V3.6h0.8c0.2,0,0.3-0.2,0.3-0.3S39,2.9,38.8,2.9H38V2.1
		c0-0.2-0.2-0.3-0.3-0.3s-0.3,0.2-0.3,0.3v0.8h-0.8c-0.2,0-0.3,0.2-0.3,0.3S36.3,3.6,36.5,3.6z"/>
	<path class="st0" d="M6,20c0-0.4-0.3-0.7-0.7-0.7H3.7v-1.6C3.7,17.3,3.4,17,3,17s-0.7,0.3-0.7,0.7v1.6H0.7C0.3,19.3,0,19.6,0,20
		s0.3,0.7,0.7,0.7h1.6v1.6C2.3,22.6,2.6,23,3,23s0.7-0.3,0.7-0.7v-1.6h1.6C5.7,20.7,6,20.4,6,20z"/>
	<path class="st0" d="M7.7,15.3h0.8v0.8c0,0.2,0.2,0.3,0.3,0.3s0.3-0.2,0.3-0.3v-0.8H10c0.2,0,0.3-0.2,0.3-0.3s-0.2-0.3-0.3-0.3H9.2
		v-0.8c0-0.2-0.2-0.3-0.3-0.3s-0.3,0.2-0.3,0.3v0.8H7.7c-0.2,0-0.3,0.2-0.3,0.3S7.5,15.3,7.7,15.3z"/>
	<path class="st0" d="M41.9,8.1h2.3v2.3c0,0.4,0.3,0.7,0.7,0.7s0.7-0.3,0.7-0.7V8.1h2.3c0.4,0,0.7-0.3,0.7-0.7s-0.3-0.7-0.7-0.7
		h-2.3V4.3c0-0.4-0.3-0.7-0.7-0.7S44.2,4,44.2,4.3v2.3h-2.3c-0.4,0-0.7,0.3-0.7,0.7S41.5,8.1,41.9,8.1z"/>
	<path class="st0" d="M49.6,14.2h0.8v0.8c0,0.2,0.2,0.3,0.3,0.3s0.3-0.2,0.3-0.3v-0.8h0.8c0.2,0,0.3-0.2,0.3-0.3s-0.2-0.3-0.3-0.3
		h-0.8v-0.8c0-0.2-0.2-0.3-0.3-0.3s-0.3,0.2-0.3,0.3v0.8h-0.8c-0.2,0-0.3,0.2-0.3,0.3S49.4,14.2,49.6,14.2z"/>
	<path class="st0" d="M19.1,14.6h2c0.4,0,0.7-0.3,0.7-0.7s-0.3-0.7-0.7-0.7h-2c-0.4,0-0.7,0.3-0.7,0.7S18.7,14.6,19.1,14.6z"/>
	<path class="st0" d="M8,40H7.3v-0.8c0-0.2-0.2-0.3-0.3-0.3S6.6,39,6.6,39.2V40H5.8c-0.2,0-0.3,0.2-0.3,0.3s0.2,0.3,0.3,0.3h0.8v0.8
		c0,0.2,0.2,0.3,0.3,0.3s0.3-0.2,0.3-0.3v-0.8H8c0.2,0,0.3-0.2,0.3-0.3S8.2,40,8,40z"/>
	<path class="st0" d="M27.5,10.2h2.4c0.4,0,0.7-0.3,0.7-0.7s-0.3-0.7-0.7-0.7h-2.4c-0.4,0-0.7,0.3-0.7,0.7S27.1,10.2,27.5,10.2z"/>
	<path class="st0" d="M34.5,14.2h6.7c0.4,0,0.7-0.3,0.7-0.7s-0.3-0.7-0.7-0.7h-6.7c-0.4,0-0.7,0.3-0.7,0.7S34.1,14.2,34.5,14.2z"/>
	<path class="st0" d="M34.9,54.3h-0.8v-0.8c0-0.2-0.2-0.3-0.3-0.3s-0.3,0.2-0.3,0.3v0.8h-0.8c-0.2,0-0.3,0.2-0.3,0.3
		s0.2,0.3,0.3,0.3h0.8v0.8c0,0.2,0.2,0.3,0.3,0.3s0.3-0.2,0.3-0.3V55h0.8c0.2,0,0.3-0.2,0.3-0.3S35.1,54.3,34.9,54.3z"/>
	<path class="st0" d="M17.2,48.5h-1.6v-1.6c0-0.4-0.3-0.7-0.7-0.7s-0.7,0.3-0.7,0.7v1.6h-1.6c-0.4,0-0.7,0.3-0.7,0.7
		s0.3,0.7,0.7,0.7h1.6v1.6c0,0.4,0.3,0.7,0.7,0.7s0.7-0.3,0.7-0.7v-1.6h1.6c0.4,0,0.7-0.3,0.7-0.7S17.6,48.5,17.2,48.5z"/>
	<polygon class="st0" points="152.9,36.8 152.1,36.8 150.7,38.3 150.7,36.8 150.1,36.8 150.1,40.5 150.7,40.5 150.7,39 150.8,38.9 
		152.1,40.5 152.9,40.5 151.2,38.5 	"/>
	<path class="st0" d="M158.8,19.6c0.2-0.2,0.6-0.3,0.9-0.3h0.2l0-0.2h-1.6h-0.1h-2.4h-0.1h-1.6v0.2c0.2,0,0.3,0,0.3,0
		c0.4,0,0.7,0.1,0.9,0.3s0.4,0.5,0.4,0.8v10.2c0,0.3-0.1,0.6-0.4,0.8c-0.3,0.2-0.6,0.3-0.9,0.3h-0.3v0.2h1.6h0.1h2.4h0.1h1.6v-0.2
		c0,0-0.1,0-0.3,0c-0.4,0-0.7-0.1-0.9-0.3c-0.3-0.2-0.4-0.5-0.4-0.8V20.4C158.4,20,158.5,19.8,158.8,19.6z"/>
	<polygon class="st0" points="108.5,36.8 108,36.8 108,40.5 109.6,40.5 109.6,40 108.5,40 	"/>
	<polygon class="st0" points="128.8,37.4 129.6,37.4 129.6,40.5 130.2,40.5 130.2,37.4 131,37.4 131,36.8 128.8,36.8 	"/>
	<polygon class="st0" points="120.6,37.4 121.4,37.4 121.4,40.5 122,40.5 122,37.4 122.8,37.4 122.8,36.8 120.6,36.8 	"/>
	<rect x="112.3" y="36.8" class="st0" width="0.6" height="3.7"/>
	<path class="st0" d="M117.2,38.3l-0.4-0.2c-0.3-0.1-0.4-0.3-0.4-0.4c0-0.1,0.1-0.2,0.2-0.3c0.1-0.1,0.2-0.1,0.4-0.1
		c0.1,0,0.2,0,0.3,0.1c0.1,0,0.2,0.1,0.2,0.3l0.5-0.3c-0.2-0.4-0.6-0.6-1-0.6c-0.3,0-0.6,0.1-0.8,0.3c-0.2,0.2-0.3,0.4-0.3,0.7
		c0,0.4,0.3,0.7,0.8,0.9l0.4,0.1c0.1,0,0.2,0.1,0.2,0.1c0.1,0,0.1,0.1,0.2,0.1c0,0,0.1,0.1,0.1,0.2c0,0.1,0,0.1,0,0.2
		c0,0.2-0.1,0.3-0.2,0.4c-0.1,0.1-0.3,0.2-0.4,0.2c-0.2,0-0.4-0.1-0.5-0.2c-0.1-0.1-0.1-0.2-0.1-0.4l-0.6,0.1
		c0.1,0.3,0.2,0.6,0.4,0.8c0.2,0.2,0.5,0.3,0.8,0.3c0.3,0,0.6-0.1,0.9-0.3c0.2-0.2,0.3-0.5,0.3-0.8c0-0.3-0.1-0.5-0.2-0.6
		C117.7,38.6,117.5,38.5,117.2,38.3z"/>
	<path class="st0" d="M127.5,31.4c-0.3-0.2-0.6-0.5-0.8-1h0l-5.6-11.9h-0.2c0,0.1-0.1,0.3-0.2,0.6c-0.1,0.2-0.2,0.5-0.3,0.8
		c-0.1,0.3-0.2,0.5-0.3,0.7c-0.1,0.2-0.1,0.3-0.2,0.4l-4.4,9.5h0c-0.2,0.4-0.5,0.8-0.8,1c-0.3,0.2-0.6,0.3-0.9,0.3h-0.2v0.2h4.2
		v-0.2h-0.2c-0.2,0-0.5-0.1-0.7-0.3s-0.2-0.5-0.1-0.9h0l1-2.2h4.9l0.9,2.2c0.2,0.4,0.1,0.7-0.1,0.9c-0.2,0.2-0.4,0.3-0.7,0.3h-0.2
		v0.2h5.7v-0.2h-0.2C128.1,31.7,127.8,31.6,127.5,31.4z M118.3,27.4l2.1-5l2.1,5H118.3z"/>
	<path class="st0" d="M138.4,40.5h0.6l0.4-0.9h1.6l0.4,0.9h0.6l-1.8-3.9L138.4,40.5z M139.6,39.1l0.6-1.3l0.5,1.3H139.6z"/>
	<path class="st0" d="M144.7,37.4c-0.3,0.4-0.5,0.8-0.5,1.3c0,0.5,0.2,1,0.6,1.3c0.4,0.4,0.8,0.6,1.4,0.6c0.4,0,0.7-0.1,1-0.3v-0.7
		c-0.1,0.1-0.2,0.1-0.3,0.2c-0.1,0.1-0.2,0.1-0.2,0.1c-0.1,0.1-0.3,0.1-0.5,0.1c-0.4,0-0.7-0.1-1-0.4c-0.3-0.3-0.4-0.6-0.4-1
		c0-0.4,0.1-0.7,0.4-1c0.3-0.3,0.6-0.4,1-0.4c0.3,0,0.7,0.1,1,0.4V37c-0.3-0.2-0.6-0.3-1-0.3C145.6,36.8,145.1,37,144.7,37.4z"/>
	<path class="st0" d="M147,19h-2.2h0h-1.5v0.2h0.4c0.3,0,0.6,0.1,0.8,0.3c0.2,0.2,0.4,0.5,0.4,0.8V28l-10.3-9.3h-0.2
		c0.1,0.9,0.2,1.8,0.2,2.5v9.4c0,0.3-0.1,0.6-0.3,0.8c-0.2,0.2-0.5,0.3-0.8,0.3h-0.3v0.2h1.5h0.1h2.2h0h1.5v-0.2h-0.4
		c-0.3,0-0.6-0.1-0.8-0.3c-0.2-0.2-0.4-0.5-0.4-0.8v-7.7l10.3,9.3h0.2c-0.1-0.5-0.1-0.9-0.2-1.3c0-0.4-0.1-0.8-0.1-1.3v-9.3
		c0-0.3,0.1-0.6,0.4-0.8c0.2-0.2,0.5-0.3,0.8-0.3h0.4V19H147L147,19z"/>
	<polygon class="st0" points="155.5,40.5 157.6,40.5 157.6,40 156.1,40 156.1,38.8 157.5,38.8 157.5,38.2 156.1,38.2 156.1,37.4 
		157.6,37.4 157.6,36.8 155.5,36.8 	"/>
	<path class="st0" d="M135.5,38.6c0.2-0.2,0.2-0.4,0.2-0.7c0-0.3-0.1-0.6-0.4-0.8c-0.2-0.2-0.6-0.3-1.1-0.3h-0.7v3.7h0.6V39h0.1
		l1.1,1.5h0.7L135,39C135.2,38.9,135.4,38.8,135.5,38.6z M134.3,38.5v-1.2h0.2c0.5,0,0.8,0.2,0.8,0.6c0,0.4-0.3,0.6-0.8,0.6H134.3z"
		/>
	<path class="st0" d="M43.8,27.9h-2c-0.4,0-0.7,0.3-0.7,0.7s0.3,0.7,0.7,0.7h2c0.4,0,0.7-0.3,0.7-0.7S44.1,27.9,43.8,27.9z"/>
	<path class="st0" d="M45.5,20.8h-4.2c-0.4,0-0.7,0.3-0.7,0.7s0.3,0.7,0.7,0.7h4.2c0.4,0,0.7-0.3,0.7-0.7S45.9,20.8,45.5,20.8z"/>
	<path class="st0" d="M212.5,31.5c-0.3-0.1-0.5-0.3-0.7-0.5c-0.2-0.2-0.5-0.5-0.8-0.9c-0.3-0.3-0.5-0.7-0.8-1
		c-0.2-0.3-0.4-0.6-0.6-0.9c-0.2-0.2-0.3-0.4-0.3-0.5c-0.2-0.3-0.5-0.7-0.8-1.1c-0.4-0.4-0.7-0.6-1.1-0.7c0.7-0.1,1.3-0.3,1.7-0.7
		c0.5-0.4,0.8-0.8,1-1.3c0.2-0.5,0.3-1,0.3-1.6c0-0.6-0.1-1.2-0.4-1.6c-0.2-0.4-0.6-0.8-1-1.1c-0.4-0.3-0.9-0.5-1.5-0.6
		c-0.6-0.1-1.1-0.2-1.8-0.2h-2.2h-0.2h-2.1h-0.2h-1.4v0.2c0.2,0,0.2,0,0.3,0c0.3,0,0.6,0.1,0.8,0.3c0.2,0.2,0.3,0.4,0.3,0.7v10.4
		c0,0.3-0.1,0.5-0.3,0.7c-0.2,0.2-0.5,0.3-0.8,0.3c0,0-0.1,0-0.3,0v0.2h1.4h0.2h2.1h0.2h1.5l0-0.2c0,0-0.1,0-0.2,0
		c-0.3,0-0.6-0.1-0.8-0.3s-0.4-0.5-0.4-0.8V19.8c0.1,0,0.3,0,0.6,0c0.3,0,0.7,0,1.1,0c0.3,0,0.5,0.1,0.8,0.2
		c0.3,0.1,0.6,0.2,0.8,0.4c0.2,0.2,0.4,0.4,0.6,0.8c0.2,0.3,0.2,0.7,0.3,1.2c0,0.2,0,0.4,0,0.6s-0.1,0.3-0.1,0.4
		c-0.1,0.6-0.4,1-0.6,1.3c-0.3,0.3-0.6,0.5-0.9,0.6c-0.3,0.1-0.7,0.1-1,0.2c-0.2,0-0.4,0-0.5,0c-0.1,0-0.2,0-0.2,0v0.2
		c0.3,0,0.6,0.1,0.8,0.4c0.3,0.2,0.5,0.6,0.8,1c0,0.1,0.1,0.3,0.3,0.6c0.1,0.3,0.3,0.5,0.5,0.8c0.2,0.3,0.3,0.6,0.5,0.8
		c0.2,0.3,0.3,0.5,0.4,0.6c0.3,0.4,0.6,0.8,1,1.1c0.4,0.3,0.8,0.5,1.3,0.7c0.5,0.1,1.2,0.2,2,0.2h1.4v-0.2
		C213.1,31.7,212.8,31.6,212.5,31.5z"/>
	<path class="st0" d="M176.8,29.8c-0.3,0.4-0.7,0.8-1.2,1c-0.5,0.2-1,0.4-1.7,0.4h-4.4l7.4-12.2v-0.2c-0.1,0-0.3,0.1-0.5,0.1
		c-0.3,0-0.5,0.1-0.9,0.1c-0.3,0-0.6,0-0.9,0h-5.9c-0.3,0-0.6,0-0.9-0.1c-0.3,0-0.6-0.1-0.9-0.1c-0.3-0.1-0.5-0.1-0.6-0.1V19v0.2
		v0.5v0v2h0.2v-0.2c0-0.5,0.1-0.9,0.4-1.2c0.3-0.3,0.7-0.5,1.2-0.5h5.2L166,31.7v0.2h1.4h1.5h4.2h3.5h0.2l1-3.7h-0.2
		C177.4,28.8,177.1,29.4,176.8,29.8z"/>
	<path class="st0" d="M193.1,29.8c-0.3,0.4-0.7,0.8-1.2,1c-0.5,0.2-1,0.4-1.7,0.4h-2.8v-5.2h2.8c0.4,0,0.8,0.2,1,0.4
		c0.2,0.3,0.4,0.6,0.4,1v0.2h0.2v-1.6v0v-0.7v0v-1.6h-0.2v0.2c0,0.4-0.1,0.7-0.4,1c-0.2,0.3-0.6,0.4-1,0.4h-2.8v-5.3h3.5
		c0.5,0,0.9,0.2,1.2,0.5c0.3,0.3,0.4,0.7,0.4,1.2v0.2h0.2v-2v-0.1v-0.5V19v-0.3c-0.2,0.1-0.5,0.1-1,0.2c-0.5,0.1-0.9,0.1-1.3,0.1
		h-3.1h0h-2.3H185h-1.5v0.2h0.3c0.3,0,0.6,0.1,0.8,0.3c0.2,0.2,0.4,0.5,0.4,0.8v10.2c0,0.3-0.1,0.6-0.4,0.8
		c-0.2,0.2-0.5,0.3-0.8,0.3h-0.3v0.2h1.5h0.2h2.3h0h2.1h3.5h0l0.9-3.7h-0.2C193.7,28.8,193.5,29.3,193.1,29.8z"/>
	<path class="st0" d="M28.6,6.4C16.7,6.4,7,16.1,7,28s9.7,21.6,21.6,21.6S50.3,39.9,50.3,28S40.6,6.4,28.6,6.4z M28.6,48.2
		C17.5,48.2,8.4,39.2,8.4,28S17.5,7.8,28.6,7.8c11.2,0,20.2,9.1,20.2,20.2S39.8,48.2,28.6,48.2z"/>
	<path class="st0" d="M40.2,21.5V20c0-2.2-1.8-4-4-4H20.4h-0.1c-2.2,0-4.1,1.8-4.1,4.1v2.3h6.8v14.3c0,2.2,1.8,4.1,4.1,4.1h0.1h12.4
		c2.2,0,4-1.8,4-4v-2.2h-3.3V21.5z M22.9,21h-5.3v-0.9c0-1.5,1.2-2.6,2.6-2.6h0.1c1.4,0,2.5,1.1,2.5,2.5V21z M29.6,36.8
		c0,1.4-1.1,2.5-2.5,2.5H27c-1.5,0-2.6-1.2-2.6-2.6V22.4v-0.9V20c0-1-0.4-1.8-1-2.5h12.8c1.4,0,2.5,1.1,2.5,2.5v1.5v13h-9.1V36.8z
		 M42.1,36v0.8c0,1.4-1.1,2.5-2.5,2.5h-9.4c0-0.1,0.1-0.1,0.1-0.2c0.1-0.1,0.1-0.2,0.2-0.2c0.1-0.1,0.1-0.3,0.2-0.4
		c0-0.1,0.1-0.2,0.1-0.3c0.1-0.2,0.1-0.3,0.1-0.5c0-0.1,0-0.2,0.1-0.2c0-0.2,0.1-0.5,0.1-0.8V36h9.1H42.1z"/>
	<path class="st0" d="M162.3,38.6c0.2-0.2,0.2-0.4,0.2-0.7c0-0.3-0.1-0.6-0.4-0.8c-0.2-0.2-0.6-0.3-1.1-0.3h-0.7v3.7h0.6V39h0.1
		l1.1,1.5h0.7l-1.1-1.6C162,38.9,162.2,38.8,162.3,38.6z M161,38.5v-1.2h0.2c0.5,0,0.8,0.2,0.8,0.6c0,0.4-0.3,0.6-0.8,0.6H161z"/>
	<path class="st0" d="M89.4,31.1c-0.2-0.2-0.5-0.5-0.8-0.9c-0.3-0.3-0.5-0.7-0.8-1c-0.2-0.3-0.4-0.6-0.6-0.9
		c-0.2-0.2-0.3-0.4-0.3-0.5c-0.2-0.3-0.5-0.7-0.8-1.1c-0.4-0.4-0.7-0.6-1.1-0.7c0.7-0.1,1.3-0.3,1.7-0.7s0.8-0.8,1-1.3
		c0.2-0.5,0.3-1,0.3-1.6c0-0.6-0.1-1.2-0.4-1.6c-0.2-0.4-0.6-0.8-1-1.1s-0.9-0.5-1.5-0.6c-0.6-0.1-1.1-0.2-1.8-0.2h-2.2H81h-2.1
		h-0.2h-1.4v0.2c0.2,0,0.3,0,0.3,0c0.3,0,0.6,0.1,0.8,0.3c0.2,0.2,0.3,0.4,0.3,0.7v10.4c0,0.3-0.1,0.5-0.3,0.7
		c-0.2,0.2-0.5,0.3-0.8,0.3c0,0-0.1,0-0.3,0v0.2h1.4h0.2h2.1h0.2h1.5l0-0.2c0,0-0.1,0-0.2,0c-0.3,0-0.6-0.1-0.8-0.3
		c-0.2-0.2-0.4-0.5-0.4-0.8V19.8c0.1,0,0.3,0,0.6,0c0.3,0,0.7,0,1.1,0c0.3,0,0.5,0.1,0.8,0.2c0.3,0.1,0.6,0.2,0.8,0.4
		c0.2,0.2,0.4,0.4,0.6,0.8c0.2,0.3,0.2,0.7,0.3,1.2c0,0.2,0,0.4,0,0.6s-0.1,0.3-0.1,0.4c-0.1,0.6-0.4,1-0.6,1.3
		c-0.3,0.3-0.6,0.5-0.9,0.6s-0.7,0.1-1,0.2c-0.2,0-0.4,0-0.5,0s-0.2,0-0.2,0v0.2c0.3,0,0.6,0.1,0.8,0.4s0.5,0.6,0.8,1
		c0,0.1,0.1,0.3,0.3,0.6c0.1,0.3,0.3,0.5,0.5,0.8c0.2,0.3,0.3,0.6,0.5,0.8c0.2,0.3,0.3,0.5,0.4,0.6c0.3,0.4,0.6,0.8,1,1.1
		c0.4,0.3,0.8,0.5,1.3,0.7c0.5,0.1,1.2,0.2,2,0.2h1.4v-0.2c-0.3,0-0.6,0-0.8-0.2C89.8,31.4,89.6,31.3,89.4,31.1z"/>
	<path class="st0" d="M53,46.4h-1v-1c0-0.3-0.2-0.5-0.5-0.5s-0.5,0.2-0.5,0.5v1h-1c-0.3,0-0.5,0.2-0.5,0.5s0.2,0.5,0.5,0.5h1v1
		c0,0.3,0.2,0.5,0.5,0.5s0.5-0.2,0.5-0.5v-1h1c0.3,0,0.5-0.2,0.5-0.5S53.3,46.4,53,46.4z"/>
	<path class="st0" d="M69.4,20.6c-0.7-0.6-1.5-1-2.4-1.4c-0.9-0.3-1.9-0.5-3-0.5c-1.1,0-2.1,0.2-3,0.5c-0.9,0.3-1.7,0.8-2.4,1.4
		c-0.7,0.6-1.2,1.3-1.5,2.1c-0.4,0.8-0.5,1.8-0.5,2.8s0.2,2,0.5,2.8c0.4,0.8,0.9,1.5,1.5,2.1c0.7,0.6,1.5,1,2.4,1.4
		c0.9,0.3,1.9,0.5,3,0.5c1.1,0,2.1-0.2,3-0.5s1.7-0.8,2.4-1.4c0.7-0.6,1.2-1.3,1.6-2.1c0.4-0.8,0.5-1.8,0.5-2.8s-0.2-2-0.5-2.8
		C70.6,21.9,70,21.2,69.4,20.6z M68.1,28.6c-0.4,0.9-1,1.6-1.7,2.1c-0.7,0.5-1.5,0.7-2.5,0.7c-0.9,0-1.8-0.2-2.5-0.7
		c-0.7-0.5-1.3-1.2-1.7-2.1c-0.4-0.9-0.6-1.9-0.6-3.1c0-1.2,0.2-2.3,0.6-3.2c0.4-0.9,1-1.6,1.7-2.1c0.7-0.5,1.5-0.7,2.5-0.7
		c0.9,0,1.8,0.2,2.5,0.7c0.7,0.5,1.3,1.2,1.7,2.1c0.4,0.9,0.6,1.9,0.6,3.2C68.7,26.7,68.5,27.7,68.1,28.6z"/>
	<path class="st0" d="M53.7,38H53v-0.6c0-0.2-0.1-0.3-0.3-0.3s-0.3,0.1-0.3,0.3V38h-0.6c-0.2,0-0.3,0.1-0.3,0.3s0.1,0.3,0.3,0.3h0.6
		v0.6c0,0.2,0.1,0.3,0.3,0.3s0.3-0.1,0.3-0.3v-0.6h0.6c0.2,0,0.3-0.1,0.3-0.3S53.8,38,53.7,38z"/>
	<path class="st0" d="M108.3,29.6l0-2.8c0-0.6,0.3-0.9,0.9-0.9h0.3v-0.2h-5V26h0.3c0.3,0,0.6,0.1,0.7,0.2s0.2,0.4,0.2,0.6l0,2.7
		c-0.2,0.4-0.6,0.8-0.9,1.1c-0.4,0.3-0.8,0.5-1.2,0.6c-0.5,0.1-0.9,0.2-1.4,0.2c-1,0-1.8-0.2-2.5-0.7c-0.7-0.5-1.2-1.2-1.6-2
		c-0.4-0.9-0.5-1.9-0.5-3.1c0-1.3,0.2-2.3,0.6-3.2c0.4-0.9,0.9-1.6,1.7-2.1c0.7-0.5,1.6-0.7,2.6-0.7c0.8,0,1.5,0.1,2.1,0.3
		c0.6,0.2,1.2,0.6,1.6,1.1c0.5,0.5,0.8,1.2,1,2.1h0.2l-0.2-3.3c-0.4-0.2-0.9-0.4-1.5-0.6c-0.6-0.2-1.2-0.3-1.8-0.4s-1.3-0.1-1.9-0.1
		c-1.5,0-2.7,0.3-3.8,0.8s-1.9,1.3-2.5,2.3c-0.6,1-0.9,2.2-0.9,3.6c0,1.4,0.3,2.6,0.9,3.6c0.6,1,1.4,1.8,2.5,2.3
		c1.1,0.5,2.3,0.8,3.7,0.8c1,0,1.9-0.1,2.8-0.4s1.6-0.6,2.2-1C107.5,30.4,108,30,108.3,29.6z"/>
</g>
</svg>
