<?xml version="1.0" encoding="utf-8"?>
<!-- Generator: Adobe Illustrator 25.0.0, SVG Export Plug-In . SVG Version: 6.00 Build 0)  -->
<svg version="1.1" id="Layer_1" xmlns="http://www.w3.org/2000/svg" xmlns:xlink="http://www.w3.org/1999/xlink" x="0px" y="0px"
	 viewBox="0 0 41 40" style="enable-background:new 0 0 41 40;" xml:space="preserve">
<path d="M21.1,20l6-5.9c0.2-0.2,0.2-0.4,0-0.6c-0.2-0.2-0.5-0.2-0.6,0l-6,5.9l-6-6c-0.2-0.2-0.5-0.2-0.6,0c-0.2,0.2-0.2,0.4,0,0.6
	l6,6l-6.1,5.9c-0.2,0.2-0.2,0.4,0,0.6c0.1,0.1,0.2,0.1,0.3,0.1c0.2,0,0.2-0.1,0.3-0.1l6-5.9l6,5.9c0.1,0.1,0.2,0.1,0.3,0.1
	c0.1,0,0.2-0.1,0.3-0.1c0.2-0.2,0.2-0.4,0-0.6L21.1,20z"/>
</svg>
