<svg width="41" height="40" viewBox="0 0 41 40" fill="none" xmlns="http://www.w3.org/2000/svg">
<path d="M21.0608 20.0348L27.0863 14.1275C27.2568 13.9603 27.2568 13.6816 27.0863 13.5144C26.9158 13.3472 26.6315 13.3472 26.461 13.5144L20.4355 19.4218L14.41 13.4587C14.2395 13.2915 13.9553 13.2915 13.7847 13.4587C13.6142 13.6259 13.6142 13.9045 13.7847 14.0717L19.8102 20.0348L13.7279 25.9422C13.5573 26.1093 13.5573 26.388 13.7279 26.5552C13.8416 26.6666 13.8984 26.6666 14.0689 26.6666C14.2395 26.6666 14.2963 26.6109 14.41 26.5552L20.4355 20.6478L26.461 26.5552C26.5747 26.6666 26.6315 26.6666 26.8021 26.6666C26.9158 26.6666 27.0294 26.6109 27.1431 26.5552C27.3137 26.388 27.3137 26.1093 27.1431 25.9422L21.0608 20.0348Z" fill="white"/>
</svg>
